<svg xmlns="http://www.w3.org/2000/svg" width="64" height="64" viewBox="0 0 64 64">
  <ellipse cx="32" cy="16" rx="18" ry="6" fill="#d09050" stroke="#8a5a20" stroke-width="1.5"/>
  <rect x="14" y="16" width="36" height="30" fill="#c07840"/>
  <rect x="14" y="16" width="36" height="30" fill="none" stroke="#8a5a20" stroke-width="1.5"/>
  <ellipse cx="32" cy="46" rx="18" ry="6" fill="#a86030" stroke="#8a5a20" stroke-width="1.5"/>
  <ellipse cx="32" cy="16" rx="10" ry="3.5" fill="none" stroke="#8a5a20" stroke-width="1" opacity="0.6"/>
  <path d="M14,22 Q17,20 20,22 Q23,24 26,22 Q29,20 32,22 Q35,24 38,22 Q41,20 44,22 Q47,24 50,22" fill="none" stroke="#8a5a20" stroke-width="0.8" opacity="0.5"/>
  <path d="M14,28 Q17,26 20,28 Q23,30 26,28 Q29,26 32,28 Q35,30 38,28 Q41,26 44,28 Q47,30 50,28" fill="none" stroke="#8a5a20" stroke-width="0.8" opacity="0.5"/>
  <path d="M14,34 Q17,32 20,34 Q23,36 26,34 Q29,32 32,34 Q35,36 38,34 Q41,32 44,34 Q47,36 50,34" fill="none" stroke="#8a5a20" stroke-width="0.8" opacity="0.5"/>
  <path d="M14,40 Q17,38 20,40 Q23,42 26,40 Q29,38 32,40 Q35,42 38,40 Q41,38 44,40 Q47,42 50,40" fill="none" stroke="#8a5a20" stroke-width="0.8" opacity="0.5"/>
</svg>
