<svg xmlns="http://www.w3.org/2000/svg" width="64" height="64" viewBox="0 0 64 64">
  <path d="M22,16 Q18,8 24,8 Q28,8 28,14" fill="none" stroke="#7070d0" stroke-width="2.5" stroke-linecap="round"/>
  <path d="M42,16 Q46,8 40,8 Q36,8 36,14" fill="none" stroke="#7070d0" stroke-width="2.5" stroke-linecap="round"/>
  <path d="M20,16 Q18,20 17,28 L18,50 Q19,56 32,56 Q45,56 46,50 L47,28 Q46,20 44,16 Z" fill="#9090e0" fill-opacity="0.6" stroke="#6060b8" stroke-width="1.5"/>
  <line x1="26" y1="16" x2="24" y2="54" stroke="#6060b0" stroke-width="0.8" opacity="0.4"/>
  <line x1="38" y1="16" x2="40" y2="54" stroke="#6060b0" stroke-width="0.8" opacity="0.4"/>
  <path d="M20,20 Q19,28 19,36" stroke="white" stroke-width="3" opacity="0.2" stroke-linecap="round"/>
  <ellipse cx="32" cy="20" rx="6" ry="3" fill="#5050a8" stroke="#4040a0" stroke-width="1"/>
</svg>
