<svg xmlns="http://www.w3.org/2000/svg" width="64" height="64" viewBox="0 0 64 64">
  <path d="M20,22 L20,52 Q20,56 24,56 L40,56 Q44,56 44,52 L44,22 Q42,18 40,18 L24,18 Q22,18 20,22 Z" fill="#a8d8e0" fill-opacity="0.5" stroke="#60a0b0" stroke-width="1.5"/>
  <rect x="24" y="14" width="16" height="6" rx="2" fill="#80c0c8" stroke="#50909a" stroke-width="1.5"/>
  <rect x="22" y="10" width="20" height="7" rx="3" fill="#c0a030" stroke="#907010" stroke-width="1.5"/>
  <line x1="22" y1="13" x2="42" y2="13" stroke="#907010" stroke-width="0.8" opacity="0.6"/>
  <rect x="23" y="22" width="5" height="28" rx="2" fill="white" opacity="0.25"/>
  <path d="M20,40 L20,52 Q20,56 24,56 L40,56 Q44,56 44,52 L44,40 Z" fill="#c83030" fill-opacity="0.7"/>
  <line x1="20" y1="40" x2="44" y2="40" stroke="#60a0b0" stroke-width="1"/>
</svg>
