<svg xmlns="http://www.w3.org/2000/svg" width="64" height="64" viewBox="0 0 64 64">
  <path d="M26,10 L26,18 Q20,22 18,30 L18,52 Q18,56 22,56 L42,56 Q46,56 46,52 L46,30 Q44,22 38,18 L38,10 Z" fill="#3a9050" stroke="#1a6030" stroke-width="1.5"/>
  <rect x="26" y="8" width="12" height="4" rx="2" fill="#2a7040" stroke="#1a6030" stroke-width="1"/>
  <rect x="27" y="6" width="10" height="4" rx="2" fill="#1a6030"/>
  <path d="M22,30 Q22,22 27,20 L27,50 Q22,48 22,40 Z" fill="white" opacity="0.15"/>
  <rect x="20" y="34" width="24" height="14" rx="2" fill="#e8e0c0" stroke="#c0b080" stroke-width="1"/>
  <line x1="23" y1="38" x2="41" y2="38" stroke="#909060" stroke-width="1"/>
  <line x1="23" y1="41" x2="38" y2="41" stroke="#b0a880" stroke-width="0.8"/>
  <line x1="23" y1="44" x2="41" y2="44" stroke="#b0a880" stroke-width="0.8"/>
</svg>
